<mxfile host="app.diagrams.net" agent="Mozilla/5.0 (Windows NT 10.0; Win64; x64) AppleWebKit/537.36 (KHTML, like Gecko) Chrome/135.0.0.0 Safari/537.36" version="26.2.13">
  <diagram name="Page-1" id="qBlnsZl8Cx9XIRoUs9M5">
    <mxGraphModel dx="5000" dy="5387" grid="0" gridSize="10" guides="1" tooltips="1" connect="1" arrows="1" fold="1" page="0" pageScale="1" pageWidth="827" pageHeight="1169" math="0" shadow="0">
      <root>
        <mxCell id="0" />
        <mxCell id="1" parent="0" />
        <mxCell id="itlNjK1PcwNAdsoQQOxN-1" value="" style="shape=image;verticalLabelPosition=bottom;labelBackgroundColor=default;verticalAlign=top;aspect=fixed;imageAspect=0;image=https://static.vecteezy.com/system/resources/previews/009/636/683/non_2x/admin-3d-illustration-icon-png.png;" vertex="1" parent="1">
          <mxGeometry x="355" y="-1171" width="726" height="726" as="geometry" />
        </mxCell>
        <mxCell id="itlNjK1PcwNAdsoQQOxN-3" value="" style="shape=image;verticalLabelPosition=bottom;labelBackgroundColor=default;verticalAlign=top;aspect=fixed;imageAspect=0;image=https://cdn1.iconfinder.com/data/icons/bokbokstars-121-classic-stock-icons-1/512/person-man.png;" vertex="1" parent="1">
          <mxGeometry x="412" y="834" width="488" height="488" as="geometry" />
        </mxCell>
        <mxCell id="itlNjK1PcwNAdsoQQOxN-5" value="" style="shape=image;verticalLabelPosition=bottom;labelBackgroundColor=default;verticalAlign=top;aspect=fixed;imageAspect=0;image=data:image/jpeg,/9j/4AAQSkZJRgABAQAAAQABAAD/2wCEAAkGBxMTEhUSEhAVFRUWFhgXFRYXEhUVGBUYGhUXGBcXFxcYHSggGBolGxgVITEhJSkrLi4uFx8zODMtNygtLisBCgoKDg0OGhAQGi8iHyM3LS4tLS8tKy0tLS8rLi0tNzctLS8uLS0uLS0tLTcuLS4tKy0tLS01Ky0rLS0rLSstL//AABEIAOMA3gMBIgACEQEDEQH/xAAcAAEAAQUBAQAAAAAAAAAAAAAAAQIDBAUGBwj/xABJEAABAgUBBAYGBgcGBQUAAAABAAIDERIhMQRBYXGRBQYiMlGBBxNCodHwFFKSscHSFjNygoOTohcjU2Jj0yRDc7LhFTSjs8L/xAAaAQEAAwEBAQAAAAAAAAAAAAAAAQIFAwQG/8QAIxEBAAICAQQCAwEAAAAAAAAAAAECAxESBCExUTJBImGRE//aAAwDAQACEQMRAD8A9pe6qwRj6bHKPbTcZRjarnKCGNpueCObUZjCMdVY8Uc4tMhhBL3VWHFGvpFJyj203HBGtmKjlBDG03PBHMqMxhGOqseKOcWmQwgl7qrDijXUik5+KPbTccFBlSXuIEgSSTIADafAIDG03PBHNmahj4LjukuvzCSzSwTqXDLwfVwWn/qHvfui/itDqemdbF/Wa0Qm/wCHpoYH/wAr5umuNs9KulcdpeoRDULe9WTrobBS6IwHe9o+8ryGL0fBf+t9dG3xdREdPjdG9G6YY0sPzBP3rlPVR6X/AMJeuQNXDB/WsOyz2n8VfcyZqGPgvHHdG6Y50sPyBH3KqBo4cP8AUvj6f/o6h4HImUtyR1Uej/CXsTzVYIHSFO34rzTQdY9dA7sWHq2/UiNEKLLwa9tid5C63q/1q0+qNE3QtQBMwYgpdba3Y8W2HjJd6Za28OdqTVvWCnO1C2Zq2Z5Iw1Z2IXSNOzHNdFEvdVYcUY+kSOUe2m4RjahM5QQxtNzwRzajUMIx1VjxRzqTSMIJe6qw4o10hSc/FHtpuOCNbMVHPwQQxtNyj21XHBGGqxR7qbBAYym59yOZVce9GOLrHHJHuLTIYQS91VhxujX0ik5R7abtzzRjQRM5QQxtFzwsjmVGoY+CMNVnYz4I5xBkMIJe6uw43Rr6RSco9tN2/FSxtVzlBh9Ia6HpYbo8d4axoufuAG0k2A3ry/pvpiLrnVRpw9POcPTgyLgMOjEZO2nA95daunTrdRYz08BxEIbIkQWdFPiBcN3TO0rArXhz5pmeNXqxY9d5ZPrLACQAwAJAeSprWPWqI2oa0VOcAPEryOzLrStYEHWzIBa9sxUyppbW36zZ5CyK1Iv1pWsetK1CWRWqdSxsQAPnMGbXAyewjBa4XBmrNaVqUOx6qdbHl7NJrHguJlAjmwi+EOJ4RPA+1xz3QdIU7cbrrxDUMD2lrsHmDsI8CvReoHTx1EJ0KMZ6iBIOP+Kz2InG0jvG9e7p83L8Z8vNlx67w6ljabnhZHMqNQwjHF1nY5I5xaZDC9Tgl7q7DjdGvpFJyj203bnHijWgiZyghjaLnhZHMmahj4Iw1Wd8Ec4g0jCCXursON0Y6mx42R4pu34oxtV3Z5IDn1WHvRr6bH3I9obdueaMaDd2eSCGNoueFkcyo1DG9GOLrOxyRziDIY5oJe6uw43Rr6RSc/FHgNu3PNGtBEzlBDG0XPCy5n0idKmDpHFhk+MRBh+ILganbpNDjPxkumYarO+C8w9KWrq1kGCO7ChGJuqiOp5gM/qXPLbjSZXxxuzmoLQ1oaMASCrrWPWp00KJGiNgwRN7rknDG7Xu3LLe1dhl8R4hQWesiHYMNH1nn2Qux6C6oQ4ZETUERo2yY/u2fsNP3m/BbLoHoaHpodEMTJu957z3eJP3DYtq1Ry9OkU15avrH0G3VQqSaYje1CibWO/FpwR+IC86Dntc6FFbTFYZPb9zh4tOQd69cAWg639W/pLREhSbqIY7BwHjbDduOw7DxKtEK2j7cLWlaxPWkOLHtLIjbOY4ScD+I3qutRpVkVpWsetK0GRWrvRvSf0XUwdVsY4Ni74TiA7jKzhvCwq1RF7QLTtBCtWZidomNxp7654eJDjuRr6eyfcue6h64xej4D/ba31TtpnDJZM8Q0HzXQsaCJnPJasTuNvDMalDG0XPCyOZUahhGEus7HJHOIMhhShL3V2HG6NfSKTn4o8U3b8Ua0ETOUEMbRc8LI5tVxwujDV3vgj3Ftm45oDWU3PuRzKrj3owk2djkj3EGTcc0EudXYcbo19PZKPAF255oxoIm7PJBDW0XPCyFlXaHzJGEmzscro5xBkMIJc6uw43XinXSKT0jqZ+yYbBwEJs/eSva3gDu55rwjrY8/T9XPPrT/2tXn6n4O2H5MGLGkJyn4DxOwBej9Uuhfo0KbrxoknRT4HYwbm44zXG9TNB67VBzhNkAB53vNmDyu791emtWZe309+Kv2uNVxqttVbVFV5XGq41WwqwV2q5SwOmeg4GqEo0IOI7rh2Xt/ZcLjhhcb0h6P4zb6fUNeNjYwk77bBI8gvRFSSrSrp5HG6u65pkdI472xIbgffNXNL1X1sQy9SII2viPaZcGtJJK9VcrblSZTFHl3T3VyNpG+sLxGhYc4NpcyeC5szNu9amtewx4TXNLXAFrgQ4HBBEiCvHekdGdPGiQDeh3ZJ2sN2HkQoidlq6ekeiGP8A8PHBw3UOluDmMP3grunMq7QXn/odbOFqZ49cOYhj4r0BziDJuOa1MXwh4MnylLnV2HG6NfT2T8zR4Au3PNGtBEznkuiiGtoueFkLKjUMfBGGdnY5I5xBkMfM7oJc6uw43RrqLHjZHiXd+KMAN3Z5IDn1WCNfTYo8AXbnmjADd2eSCGsoueCFlXaCMJPexyRxIMm45oJc6uw4oH09n5ujwB3c87I0Aibs8uFkENbRc8F4b1/hlvSOptIOLHt3gw235g8l7kwk97HJcB6V+rborBqoLS58JpbEAEy6HczHiWkky8HHwXHPXlV0x21Zg+j3S06X1m2K9zvIGgD+knzXVNWs6uwqNLAb4QmT40gn3zWyCxrTu0tesarELrVW0q2FWCrRKsroKrBVoFVArrEucwuTUEqmaglTtGkkq25VEqglUmVohS5eeekrSUxIMYDvNMN3Fvab97uS9BJXL+kPT1aNztsN7HjnQfc4qtZ/JN43WWx9EUH/AIJ/i/UPdPg1jfwXcB9PZK5r0d6J0Ho6ACJPeHRD4ye8ubb9ktXSsAIm7PJbOONVhlW8yhraLnghZV2vmyMJPexyujiQZNxz96uqlzq7DigfT2fm6PAHdzzsjQCJnPLhZBDW0XPCyOZXccEYZ97HJHkizcc0AMpuboWVXFkYSe9jfZHkg9nG66CS6uwttQPp7KPAHdzuvZGgETdnfZBAbRc32IWVdr5sjCT3sb7XRxIMm458boJLq7C21A6nsn5mjwB3c7r2RoBE3Z32QcnpRJgHhbkZK8FD2UviNOx5Pk7tD70Xz9o1Mw3d77+1wFVgq0CqwVMSrMLgKqBVsFTNXiVJhcmhKomomp2aVEqglCVSSqzKYgJWLrNO2IBDc0Oa9zWkHBBcLFXyVVpW1RYY8CXfZBI98lFI5XiFp7VmXRBlF/KyFlXaRhJ72N9kcSDJuN11vMRJdXYW2oH09n5ujwB3c7r2RoBE3Z5IIDaLm+xCyrtfNkYSe9jfa6OJBkMfM7oJLq7C21A6ixvtR4l3c7rowA97O+yAX1WwgfTbKPAHdzuujAD3s77IIDKL52IWVdrCMJPexvtdHEz7ON10El1dsbUD6ez83R8h3c7r2RoEu1nfncggNovnYhZV2kYSe/jfa6OJn2cbroNJ0yP70PAs9sj+03HuPuWIt70rpQ+GQyVQM2yvcfMvNaGG6Yn8jxCyOsx8cm/bV6W/LHr0qUgqlSvK9CsFTNW5qZqdo0uTUTVM1E02aVEqklRNFG06Fm9BwJufE2Nk0b/ad+C18R0ha5NgPEnAXQaHTmGxrBcDvHYSbuM+M16+jx8r8vTzdVfjTXtkl9dsbUD6ezlHyHdzuujQJdrO+y1mWgNovnYhZV2vmyMJPexvtdHEz7ON2N6CS6u2NqB9PZ+bo+Q7md17I0CV+9791kEBtF87ELK742IyZ7+N9keSO7jddADKb52JRVfCMn7WN6PnPs43IJL67Y2oH09nKPl7Od3gjZS7Wd6CA2i+diUVdr5sjJ+3jf4o6c+zjdjegkurtjagfT2co+XsZ3eCNlLtZ35QQG0XzsWk6V01LvWgdh57X+V3jwP38Vu2T9vG/wAVTFbObZTabESmCNq5ZsUZK6l1w5Zx225tFc1+nEFwFU2OnSZ3G4/FW1i3pNJ4y162i0co8JREVFhERARQSquj4QjPI9hsi7xdfG4K9KTe0VhW1orWbT4hldDaT1jvWHA7m/YXfgFu65djynxUOAAFHu8FIlK/e989i28WOMdeMMfLknJbcoDKL52JRV2sIyftY3o6c+zjcujmkurtjaldPZz/AOUfL2M7vBGyl2s78oIDaL52JRV2vdwRk/bxv8UdOdu7uxvQSXV2xtQPotnaj5exncjJe1negV1WwldNso+Xs53IyXtZ3oIoovnZ4JRV2sIyftY3+KOnPs43IJqrtjb4pXT2c7+KPl7Gd3gjZS7Wd+dyCKaL52eCUVdrCMn7WN/isTpLpODAvFjw4TfF8RrB/UUGZVXbG3xSuns538VyWu9I3R7DTCivjP8ACBCe+fB0g081hQuvcaK5oh9GxGsJ7UWPEawtHiIbZl3MKJnUbTEbnTY9PRZxaQZhgl5m5/AeSwYcUtxjwPzZUzncmZNyfEnKLEyW52m0/barHCIrH0y2asbZj3j3K4IzfrDmsBRJc9LbhsDHb9Yc1afqxsBPuCxZImjcKokQuyfLYth1ei0xpfXaW+dj+BWtUO1boP8Aesh+scwEtZVTWZHs1XlPxXXFOrxP7UyflWY/Uu5lRfM/JTRPt+cuC4eB6SIYMtVotVC3+rEVg/eaZ+5bPR9fOjopk3Ww2icpRCYPlKIAttiulrrtjb4pXT2cqiHHY9tUJ7Xb2ODhLiFWyUu1negimi+dnglFXaxu4Iyft43+KOnPs43Y3oJqrtjb4pXT2ffxR8vYzu8EbKV+9vzuQRTRfOzwSiu+NnijJ+3jej5+zjcgmii+dnglFV8e9QyftY3o+c+zjcgV12xt8Vqum+s+l0XZ1EdrSbht3PM/CG0F0t+FzXX3rkYbzo9E4CNIeujSBEBpFmgbYhF5bBLy8/gNawlwm6I4zdFea3uO0lxvNB3sT0ktv9G0GojHYX0wGH94lx/pWs1nXDpKIZgaXTDfVGePMkN9y5p2pccuPNW60Gy1erjxf/cdJ6mJ/lhEQG8mAArChaTSsM26ZrnbXRCXknxM1arStBsh0k4CTaWDwa0BWImpc7vOJ4klYlaVoOp6F6TDhQ49oY/zD4rcLz4RN63fR3WEttFEx9YZ8xt4rPz9LO+VP40MPUxMcb+fbqGtVwQ1jaPpKE/uvB3beWfcs9sRv1gvHx15ervPha9WqXMV90Vg9oLWa3puCz2wT4C55D8VMV32hG5jvPZkOEloOnekR+raf2iNm5YfSPWBz7M7I8fa/wDC1Fa9vT9LMTyv/Hkz9TGuNP62EPpCIMRD53+9RF1bX2iQoT/2mCfNYFaVr3PCujQ6WqpsJ8F31oMRzCORCz9Pr9TD/U9KxxujBsccJvBstXWlaDqoPXLpJtnDSahu6uE8+cy33LZ6L0mNYANXoY0EbXsIjsG8loDpcAVwVauM1Lhh3lkIPa+i+kYMWGI0CK2Kx1g5ptPaD4EeBusuirtY3cF4TodZE00X6RpCGRP+ZD/5UcfVe3E8yORNewdW+nWa2A2PBmBOl7DmG8SqY7eJ+YIO1Btaq7Y2+KV0Wzt8FL5exncjJe1negiuq2Nq1HW7p36DpYkWQc4CUMH2ojjJgl4TudwK3D5ezncvK/S9ry6PptNPuNdHeN5JhwuQETmg4yBMAlzi57iXPccue4zc4+auVrHrStBkVpWsetK0GRWlax60rQZFaVrHrStBkVpWsetK0GRWrjdW8Ye4cHELDrStRMbTEzHhlv1DjlxPEk/eqK1j1pWpRtkVpWsetK0GRWlax60rQZFaVrHrStBkVpWsetK0GRWt11F6bOk1rQT/AHOpIhRBsbENoUTjM0nc7cudrVrUtqaW3uLHwOw80H0hTRfOzwSiu+Ni1HVDpX6To4GoeZ1wxVtHrG9l/wDU1y2z5+zjcgkspvleD9fNYYnSWqccNLIbdwZDbMfaLua93YCD2sb7r5v6bjVavVOnnVRyOHrXS90kFFaVrHrStBkVpWsetK0GRWlax60rQZFaVrHrStBkVpWsetK0GRWlax60rQZFaVrHrStBkVpWsetK0GRWlax60rQZFaVrHrStBkVpWsetK0GRWlax60rQeuehnU16WNAJ/VRyW7mxGhw/qrXfl9Fs7V5J6F45+kaqGD34UN+fqOc0/wDeF64wgd7O+6CBEqtjavmXpUy1Ecf68b/7XL6Uivn3cz2WXjPTfo31rtRGewwSx8V72l0QtMnuLpEUm4nLOyaDiK0rXVO9GmvGRAH8U/lVP9m2v/0f5p/Kg5etK1039nWu2eoP8V35FSfR7rRkwf5jvyIObrStdG70fa0Z9SP4jvyqP0B1n+j/ADHflQc7Wla6D9BNXsME/wAR35FSeo2r2mD9t35EGhrStb49SNWMmEP33flVP6E6rxhfbd+VBo60rW8HUvVbDCP77vyqD1M1XjC+278qDSVpWt2epmq2+q+2fyoOpeq/0vtn8qDSVpWt4OpWqODCP77vyqf0I1fjB+278qDRVpWt/wDoLq9pgj9934MVQ6hazxg/zHfkQc9Wla6NvUDWHDoH8x/5FV/Z7rPr6cfxIn+2g5qtK11H9nGt2u04/iRPwhqpvo11xw/T/wAyJ/toOVrStda30Za04iaY/wASL+MJVD0X63/F0w3esi/7SC76Ho9PSJ/zaaI3+uE7/wDK9vDa742Ly7qL1F1Wj1bdRGfALAx7SGve5xqFpAsAyPFelzJPZxusguPg03F1T9HqurjARd2OaPBJm3HJBY9XXYiW1UOg09mSy3kHu55I0gCTs80GE/RBtxfYqPoAd2vmyz2AjvY53RzSTNuOXuQa0aIPtKW1UO0Ib2ZLbPIPdzyRpAEnZ5oNO/osNuL7FT/6SHdr5stwxsu9jndHNJMxjl7kGkHRYfaUtqpd0WB2ZfJW+fI93PJS2QEjn5ldBz7+hg2+UHQgPa+bLfMbLvfFHMJMxjlxsg0DeiQ60pbVJ6KANMvkrfvke7nkpbICRz8yug0J6HDL5VTehwe182W6Y2Xe+KFpJmO78zsg0zOjA7dJV/QADTLdzW3fI93z2KQRKR7347LoNUejQy/kq2dHB11sWNIu7HNHNJM245IMBmlqsRLaq/o9PZl8lZryD3c8rI0gCTs8/egxfotFxfYq26afa+bK8wEd7HNHAkzGOXGyC21ldjbaqu5YcVW8z7ueSMIFnZ5oKtTjzTT91EQWtLnySP3uSIguarHn8VMDu80RBb0ufJRH73JEQXNVjz+KmD3ealEFrS58lEXv8kRBc1WBxUwe7z/FSiC1pcngoi97kiILmqwOKmH3PI/iiIKNLkql/f8AMfgiILupx5pp+7zUogs6XPl8Ej97kiILmqx5qYPd5oiC3pcngo1OfJEQf//Z;" vertex="1" parent="1">
          <mxGeometry x="444" y="-190" width="577.98" height="591" as="geometry" />
        </mxCell>
        <mxCell id="itlNjK1PcwNAdsoQQOxN-10" value="" style="shape=image;verticalLabelPosition=bottom;labelBackgroundColor=default;verticalAlign=top;aspect=fixed;imageAspect=0;image=data:image/png,iVBORw0KGgoAAAANSUhEUgAAAOEAAADhCAMAAAAJbSJIAAAAq1BMVEX///8AquUAmuAmP1ItSmApR15GXG8uRVkArekafacnO0wAneUbapMZN0zg4+ZteoaEk58iQlrp6+0KN1IbYYUkYH8NMUfS1toApuQiaIoAoOIAoeIAp+QAnOAhO08YPVbGzNHx9vZOZHYAKUEgb5QqUGmvuL4AJT6Zoql3hpNZaniJlqGkrbM6UGElVXLa3eANicQSkcK9w8gSfrMiTWgHoNcHk9RldYF8iJI5iCwPAAAFLUlEQVR4nO2df3OaShRACT/UaDVBW+hrn6yLjUWTmDZtX/L9P9mLTVSSLrLA3t17O/fM9L+O7PGwyEIGPI9hGIZhGIZhGIZhGIZhGIZhGAYvi+Ii79EjvygWOnqyECKOaBILUcg6wVUoQsqIcHVacC0i12PsSDS7PCW4SQLXI+yOWJ8omARB0Hc9ws6I6yrB+2XwG9cj7MxsUWE4zp4NyWeMQrXgTRIcCMM+NcqKQn1Avc2OhsPtl3NafNmWHKNcJXh3TDj8+W00/zigxdn3q6NjNFUdZ5JjwPnI9/3PZ7QYnB0zCtWx5nK8N4zm/m/mH10PuhmDX1d7w/hGYXixNxz+GPkvfHI96GYMzvcRY9VP4sEwmPsHiGX8dWioOnU7GG5HfglSGQdbHcPh+1eGpDIOPrQxpJSxrSGdjK0NyWTsYOj7JDJ2MvQ//et6/PV0M6RwGtfV0J9jz9jZEH1GA4bIM5owxJ3RjCHmjIYMEWc0Zog2ozlDrBlNGuI8GzdqiDKjYUOEs9G0Ib5FlXlDbLMRwBBZRhBDVBlhDDFlhDLEkxHMEE1GQEMkV6pADVFkhDXEMBuBDRFkBDd0PhstGDrOaMPQ7aLKjqHLRZUlQ4cZrRk6u4tjz9BVRpuGbmajVUMnGS0bOsho29B+RvuGtjM6MLSc0Ymh1YxuDG1mdGVob23szNDaosqhoaWMLg3tZHRraCOjY0MLGZ0bgl+pQmAInBGDIexsRGEImhGJIeBsRGMIdqUKjyHU2TgmQ5iMqAxBMiIzBFgbYzM0nxGfoemMCA0NZ0RpaDQjTkOTGbEamsuI1tBYRsSGhjJiNjSzqMJtaGJtjNzQQEb0hp0z4jfsmpGCYbeMJAw7ZSRi2CEjFcP2GekYtr3gSMmwXUZShq0yEjNsccGRmmHzRRU9Q3/+1xs2zEjSsNHamKZhk4xUDfUzkjXUzkjYUDMjZUO9jLQNdTISN9TISN6wdm1M37BuUfU3GJ7OqGcY/ERteHI2Dq60DMvPoEVJdUbNZ9CWniOMlYrZWHqO8OmGwX/oFZUZB4eEdYbDCL+iImPpYde1DYfBjxF+3jw0/uw8DLUNnxyH23foef9Pie2rdwfUG+4c8RP0Q+WrEfQMaVD1Jg6Xhln9f2kEMsMsyfpP/4x+pjKjK8MsKNJJWpjuqDJUvTng0YJhKuVUytT0lv7MGBcKw1VS/1HdSFZyukOa39RbQ3GvMEyhDbNgusf48eZtxniiMPT6xjf7miyfvjSc5gCbKr9OLeqpBL1r4ImY3R4a3kJ8maWMQvUSFs+TS4DNllmmLw1ToC0dDZWCnlcAz8RsI3eKUm6g5sNLxlnlGwJz4P10/DCRUt49AG5mNxvjiypBT/ahFbPNepOBbqQfxr0T77GUt+A/GWPgI3aQ5Cdf1Ckfl9AjgCVbPta9iTTNv4J/zVBk4695WuO3467o9bOxEfS+KlMb6/eKOw2/Z6YTI9zrHFTG92Y2pnpdHjha57qJzo6FFTZkQ/ywIRvihw3ZED9syIb4YUM2xA8dQzlth+Yav+Wn111y0mex7sWzVgj1Pei3t8LafXjcWy+M+KW5iKP6YTogioXWpbUarmc49Z6JZqrb2Y241NvR3CFUf5PQgBvsgpX3CjWZzFyPXwOhvKOtyUPsevgaxA/tBacUEobhrP3V7hX+WbhDVN7yrWVNYSd92k3XrQ1zzD+FR6K8tWGPiKH6r2d0WIuIAqL9Xuo99ijQ8ayGYRiGYRiGYRiGYRiGYRiGYRjGEv8Dsymncdnhlt4AAAAASUVORK5CYII=;" vertex="1" parent="1">
          <mxGeometry x="1993" y="-264" width="689" height="689" as="geometry" />
        </mxCell>
        <mxCell id="itlNjK1PcwNAdsoQQOxN-12" value="" style="endArrow=none;html=1;rounded=0;fontSize=12;startSize=8;endSize=8;curved=1;" edge="1" parent="1">
          <mxGeometry width="50" height="50" relative="1" as="geometry">
            <mxPoint x="2610" y="294" as="sourcePoint" />
            <mxPoint x="2660" y="244" as="targetPoint" />
          </mxGeometry>
        </mxCell>
        <mxCell id="itlNjK1PcwNAdsoQQOxN-18" value="" style="endArrow=classic;html=1;rounded=0;fontSize=12;startSize=8;endSize=8;curved=1;strokeWidth=10;entryX=0.013;entryY=0.637;entryDx=0;entryDy=0;entryPerimeter=0;" edge="1" parent="1" target="itlNjK1PcwNAdsoQQOxN-10">
          <mxGeometry width="50" height="50" relative="1" as="geometry">
            <mxPoint x="1048" y="1135.56" as="sourcePoint" />
            <mxPoint x="2707" y="1125.56" as="targetPoint" />
            <Array as="points" />
          </mxGeometry>
        </mxCell>
        <mxCell id="itlNjK1PcwNAdsoQQOxN-19" value="Text" style="edgeLabel;html=1;align=center;verticalAlign=middle;resizable=0;points=[];fontSize=12;" vertex="1" connectable="0" parent="itlNjK1PcwNAdsoQQOxN-18">
          <mxGeometry x="-1" y="-20" relative="1" as="geometry">
            <mxPoint x="9" y="17" as="offset" />
          </mxGeometry>
        </mxCell>
        <mxCell id="itlNjK1PcwNAdsoQQOxN-20" value="" style="endArrow=classic;html=1;rounded=0;fontSize=12;startSize=8;endSize=8;curved=1;strokeWidth=10;entryX=0;entryY=0.5;entryDx=0;entryDy=0;" edge="1" parent="1" target="itlNjK1PcwNAdsoQQOxN-10">
          <mxGeometry width="50" height="50" relative="1" as="geometry">
            <mxPoint x="1135" y="103" as="sourcePoint" />
            <mxPoint x="1843" y="124" as="targetPoint" />
            <Array as="points" />
          </mxGeometry>
        </mxCell>
        <mxCell id="itlNjK1PcwNAdsoQQOxN-21" value="Text" style="edgeLabel;html=1;align=center;verticalAlign=middle;resizable=0;points=[];fontSize=12;" vertex="1" connectable="0" parent="itlNjK1PcwNAdsoQQOxN-20">
          <mxGeometry x="-1" y="-20" relative="1" as="geometry">
            <mxPoint x="9" y="17" as="offset" />
          </mxGeometry>
        </mxCell>
        <mxCell id="itlNjK1PcwNAdsoQQOxN-22" value="" style="endArrow=classic;html=1;rounded=0;fontSize=12;startSize=8;endSize=8;curved=1;strokeWidth=10;entryX=0;entryY=0.25;entryDx=0;entryDy=0;" edge="1" parent="1" source="itlNjK1PcwNAdsoQQOxN-1" target="itlNjK1PcwNAdsoQQOxN-10">
          <mxGeometry width="50" height="50" relative="1" as="geometry">
            <mxPoint x="1058" y="1145.56" as="sourcePoint" />
            <mxPoint x="2011" y="201" as="targetPoint" />
            <Array as="points" />
          </mxGeometry>
        </mxCell>
        <mxCell id="itlNjK1PcwNAdsoQQOxN-23" value="Text" style="edgeLabel;html=1;align=center;verticalAlign=middle;resizable=0;points=[];fontSize=12;" vertex="1" connectable="0" parent="itlNjK1PcwNAdsoQQOxN-22">
          <mxGeometry x="-1" y="-20" relative="1" as="geometry">
            <mxPoint x="9" y="17" as="offset" />
          </mxGeometry>
        </mxCell>
        <mxCell id="itlNjK1PcwNAdsoQQOxN-24" value="" style="shape=flexArrow;endArrow=classic;html=1;rounded=0;fontSize=12;startSize=8;endSize=21;curved=1;strokeWidth=23;" edge="1" parent="1">
          <mxGeometry width="50" height="50" relative="1" as="geometry">
            <mxPoint x="2677" y="71" as="sourcePoint" />
            <mxPoint x="3684" y="71" as="targetPoint" />
            <Array as="points">
              <mxPoint x="3205" y="71" />
            </Array>
          </mxGeometry>
        </mxCell>
        <mxCell id="itlNjK1PcwNAdsoQQOxN-25" value="" style="shape=image;verticalLabelPosition=bottom;labelBackgroundColor=default;verticalAlign=top;aspect=fixed;imageAspect=0;image=data:image/png,iVBORw0KGgoAAAANSUhEUgAAAOEAAADhCAMAAAAJbSJIAAAA81BMVEX///8bKk84ToUuQnequv0vQ3kzSH42TIIwRHmuvv81SoAXJksZKE43TYP19vgaKExFU3seLlUsP3Kzw/8hMVspO2ymtvkAFUUAHEkoP3clNmMdN3IsRYCgsPInOmkySYIoQn9qfLcZNHEAFEVTZ6BGW5N9j8xhdK4QJU6HmNZzhcFjdrCUpeUADkHh5Ozr7fLS1uFZape8wtN7h6pEWYyJlLKstMnM0d4EH0pNYZlnboO+wcpjcJYKK2ucoa52fZCbpL6Djq9fb5pufKKyucwrOl45S3kzRXFBTGmlqbVXYHglNFeFi5xPWHJLW4eeprwAAD4a+pArAAAQHklEQVR4nO2dfV/bRhaFa0szkoWNY0wMIRjbYN4MBEIIgW6yJU3SdLfdZL//p9l5nzuyBJasK1nZ3P4Tl/RXP5k5OvfcGTu//PKzftbP+v+t6/Wq3wFuXb3ev7mu+k0g1uWb8ajZHP9+VfUbwaoHzsdqNH7zQ27V65txU9fu7u0Px/jqk1pAVeMfTI7rb10+sVXfv6r6bRVXt7u7zfka7X/8Qbbqu9fjBD4hx+Zt1W+ugJIOkVbj1++qfoPL1sNjfEKOny6rfo/L1HUzbYNCxofayvHq96f5hBxvPlf9VnPV+scnNiio8esaNnK34ySHSN2q+29qJsd33xbboIBxt05yjLdoi1WNGrm3uzn4+DKOf69FI3ed2KItyLj/ceXluKhDpNXu6HvVCI/W+qMt2mI1vlnhRu77EhvU1urK8d3NchsUMr5dQefI5xBptXq5aj2vQ6TW+NtKNXKfCxGgW6OXn1ZGjukhfknGFclVj4f45Wq8CrnqoWgBOjWqPFctEuKXZKw0V129x+bjtTt6qIgvYcyLVBXlquQxL04xOZbuHMW1aAsy7r8tVY6vEB0irUpt5HAdIrVKy1XXzfIE6NZo/KkEvmVD/DJ182wLvY27zDDmLby+fVm7wCYsJsTnq5sva90GMmHZDuHU12630WijEhYb4jPWH3+tNVi1D/AIiw/xWfi+CD5WeGv4eVSdADtfmQCRCa+QQvxC9bVh+BoNnF2KGeKfrD96gA+J8HuVG/SLw4dD+LpKAXZjgBiE66RzUxHg116cr9FA6NrW6YvwpgpGurk2x4ezhtTzvLB0xGBnfv3Q1tDjFZXK2NmbEyA6oecF5TEmCbAEQi8MyuGLNlP5cAhDBkclZtjB5+ukCBCZMGoGpBzGr432Y4CIhGzzhIKRYjKG6QLE3qXi/y+2KhG4KBU8JkB0QiK45DKGKIzpDlEOYSgfpWqrIjxWN57coOiEjIu/E2UeBcuRLrBBSyCEciyUMa1Fq4Iw4hIMCpbjXmNhQMwnjSSkkqtIOT7tEOUQBqEiVHs1Ult1Wb5HW7SE2kZ0fNbVSEL5xDFyXIbviRatJEIiF48zWUL+cnk5bjzRoiUUxi4lYg3VYmlCKcFALiPJJ8dsAkQmFM9SvliiAeeEkDiXc2RwCFhYu5SvoW3AJSHLxJAxI+BCLVqphNoPOZMlFI0cyS7HBVu08teQP2kkiCIMZbPqZcuOWR0CFt6ThmpCj6eMDlGEMTkuwpdTgOiEzU6oHV+A8K5GEApi8VOt1MdrL7tDwMLapapVizl+APvxaCF3zOUQZRAqqo71Q+4cTfP8gbkqfGSDLiFAdELleZEmlIulCReS42IhvkJCycRbNeUWWo5y74YwVyUx5neI0gg93aqRZgc6vlKnJ8xCMc41cguH+IoIDaVMToZQNHLU7F0hwaRctZxDlEEYqaUxfqAJPWv5Yu8myzFLiK+K0Lxt7RxEO74AoZrQlWNUjEOURAgZ1bpBP6SmH4/AVmW/swCHwCaU7xoMhA1UAOdTgZM4zJ/Hs6SD3JUklM1ZXI7GD+VMyhAG5od1IHzhqWwBJ1AeGIHLZ6mWIyeMDqlGrBWhXJ6OlaMitm4hoIJmdNw6rymhfP4HMTlaQr58bG2jSat1SmtJyGIiAbHeMBs/lPOa4ND3/UMcwjs0wlARqg7cdY4g9Nz51Kzfug9qRigeKirqx9xRrSIBz1I6PWO/idSIUPXYEUzAgbtVqev4Uf2eNNzUFSFh2xIcl+pWDRKKqtcaKgxN6PbYHnR8ETfQ/BCTUO5OGipCtVgx5yDiZsr9+YTWcA3tIyZUBxZi3aIYIxfrrNWaIPkhOiHffizyasIE54iY409b/rCWu1Q8S8GhE3c8szkloxx7j85bPvPDOu3SSJp6ZM6AqUzAJDYQNsH+9LxmOlQHotAPqSLUmcMsY6Sa1XoRqs1o/VAcJRpCGOvB2LtWhO7VNj5RtCGXiolighxrRqgaF6IdXw6ENaEzgdJ/HnUjtLFeOT5RiwrPa5xGrn6EtsfWbhHwVaV67zZj7lgnwsi8b+ENhlAsq3siBZzDqxOhXZvQPmLkGXBn7kQqIrUktHkw1P4XaFAxngrlaQY8u6gZIXiMqB4bzrwD4iRgs+T1IgSPESlH44fcACN35q1yVY0IxVzCPkbAvW8qLaMJ5zRmBFAfwmg2kVCRK0dNKO+EhZLw8Ogeqy89QSOks/5wSgPnMaLkaP1QrFsghonTCCUftvEIm/R42D+V5xFmsC9bNZs4QrlBo7OWf46T8dEIZXif+f5MytE0oMTe3rNnwM3msIU080YjVHeEmqf9wTGlYpQRcw7nDDi6HwxxdIhGqP2C3J/3B8PhEb8jbORo5lPg/FAk4DqtoV6cZjQ6G7T81mBC441cRGN+WDtCnWspP1jyW+dT0gGNnMCyt2yCehLqY6epLxjFg3VejoLwPqobYaRFJyb7xxLRn3E5Oo2cOgOe9LHOgDHdQt885Pq7P28JxuEZk6PrjhEJxMwb6QwY0/HNhuSn2cz+JeP5PYnnKvb63vcHxa5ht7GDR/jSPB91euJWQWd+y8rRzVV8EQeFOn530yPiahwyoRUd36qHp0aO0DmkOx4fF9iXdjc3iEc2G5iEc+mJ5ww61XI8ZuIzT1XpjsWdAXd7eyEDfN5AJWRPjyNh8jY9hXyrcvuXcpzfqkUR7ngh+0fKEJUQpCdiQOjoSMlRNnLEYSyAkAuQ7RhzfRNThyObnhznODyViIPZyJFjp4DOu735nPM9t9c3UZ80UcQenzPqyJHfrqRT5RzDKXFz1ZJr2G3scT4PXt9E80MK0lMURKBdE3tzouR4BD6WyH605Bo6Amxs4hLC9DSMpSe+N5tSjmyJxZ9EARNh6RDecylA/grXDz2bno7n0hNo5FoT4vhmXsJu7zlhgBtyg/JX2H4olQXTExOd9UCWq1Qj11ITObNV8xAyAbLtqQWo5Ijsh9AEVHrqO+2akONsMBgw+6fwFkoewk0lQPmE2SHilXzRbmM9S530dKbatSOQnsRWZS+n531h/3qrZiaUAgyVQ7SdV3iExE1PkU1PBMhRLl00Ufafy/GZ5EIrwLYjR/FvMP0wsO0aSE9TlvtBrhKectTy89366qotaQUINigqIUlKTwOQnqj9iXgYsa2a55Sbt2ihp1s0KUfzqoe+hvPtmq/atcAGfekpbI1z3Bjq7oAWTcoRvkLPh/JCpUlPol1LSk9yvQVo1jVkRNoBG1COQpzIfsiyxSlfKneYEZGzYUJ6Mh8izUjYI0pyc3IMrR+iuQXLh33mdFFMjrQ5c9IT9M3sa7hpBMj/y7gcsQmbwdmgL+ZOqemJup6SMz2JFi1FjriEPO22WqfS6QJHjiY9Uf1JfemOefzQFaDzCpVQu8Bp3580xRlhUnrqO+mJ5llDlZi0HMM5P8QiVOkpINNh3x8MZEtqG7mC0pPYkmZk4b7S+RCPEDRlYoIYT0+HMj2dLZGemB8yw9cCZA7hylH6ISKhOXuaCpQBf7Aa0YH0FOVPT6zFtgIkjhyJ9sMGEiFsyuhxggfKRo7F/yXSE/dD9cuYHHla3GigEkbQBehMIPr+KUhPImREy6WnTegQIZQjf4VLGDt70v7gz0gU88AgOmP2H+T/zIzOT1aO9hXmGsIJIpyuiT0JchVfOsrTU86pvhxZWDnuxfMh4hrCdq1j/GFejso3c96n2XEHGM48sQRC+zF7cEzqi2GGSU9Up6ccPc18YgKveriEkbxrYa9DOcNuXwzYQksvPhuUmVD4IRBg7JX0Q7w1pEdJ6UkHfXFoM5eesq4h98MdI0AuR/Wqt4fuh+7ZE0xPRz64meHKMSthj5C4AO0r7Yc9PB1GrCU9Tzh70nM3/yiiMefIuobaD3sb4bwc5W/pIhJyi2DpoWmPBpUciZ67Dc6o/QnJl56SBChetZEJZdvN54QDkZ7MYSjhvxyZWwtuesrlh3DELQcYIfBDNELjdPLm3ik88KUg6B+5352RmVAmJtOw7WzA6SIyoZ0T8rMnfwKuComgX8TZExcgAQ4I/bDdQyc0W/XQtmtGjvwSn5i7aaGaS0SZnjSxEzW2gHE/xCV0z55kuxY4jdxwMOgPJs5ELgvhBtEtWjeenxj6Dv4aakYWEFv27AlMEGnz8PB4yHxTnTRmJGR+mDjAYHLktA1UQjt5EWdPh8oDB5NRPD3x+wz6zkZ+P3Qa0pL80D47hAeCCWIAc5WwktNWa8Z/lf1Z2lAtWkyONj+hEO5L+7afDxUji2gCz55i6YkH/by3L93EFM9PWITxb09QE0Tdro2ok6vEdbBzmmcNVYu25zRswA/bW1/Q1jACX6ernIMaOcKLtGrqSPPsUr4liW3Y3IE+47u7+7twPrOG8uPanZgcwVGw9UDzbYKZT2b4hNQIcC820G+cHPyK8rc6G0LzvQNQjvrsSc7dYukpnx+mDDDaF38i/XXHgBB8KRSQ46meu8ExeJBjDXth2okTq+3tf+HwuYTqrdutyqcXxNzMOAbpKc/Z005SwybqZOtvtL9/NEYY/24h3pKyJ+cQRAu7VfOdHzb2PM8VYPvi36/Q+OYJ1Rco2uMlcBSsz548W1kJu+4Ag9fWX/9A5LN+CN62/GCF81IlRJOeSD5C06JZvrutf6LyKcL40iTJUdzMaM3cQ+LsfhhziK3fUBzCIfxglw2cfMaYxTBjIs6ezuRELsienjbFjUTgEN2LP6+w+Vi9//AiYWvGv8yEJ0R+dHh/7t5nyOSH8M46q+07NIdw6923ff3YTJCjXVd1kf94kDM99Zw76427bUSHiNdt+FKvk8MYd45AJ0R/licf7gABrl38iukQc3X5Fm7V0GV0G7lm/rMn4IAHX3AdIqFevd9/kfAUnZOjmshNl/p03t02tkMk1rWWY8w5SMw5bHrKSXhy8Ft5AnTr+ws7HQ5iW3VOjnkJ2xf/KcMhUuryDZAjYCSJcsw1p9k+KV2Abl29lnIkbuT33O8zBd+LmY2QOUS1fLyu/wAHGemNXJjjE5YnJTtEWq0/vLRX3R6TYycbIQvxFW9QW5efPljnADlqjjkL4fZBSS3aYnX1LdkdSbwjWJSQZYiqHCKtbqOF5LgYIQvxFTpEWq2rRk66YzxXhVkIsUN87jKNXCxXOVv1ScI2fohfot7dpOQq65ZPEZ5s4Yx5C6tbz8qxE2tyFuhp8Ma8xdX6xw/2Y7TwKbqI46+YQ6SVk6vABO7JNbzDHPMWW9dKjo5zhE+s4RrumLfgWv/+ci5XPbGGFYT45crkqthf6JFCePffFXaItNK5SssxTD97KmPMi1KfO7CRS13DakP8crX+AJqcND/cbtfCIdLq8hNknN+l7buD2jhEWpkBedIJ6cnBaoT4JcsMyOfWcIVC/HKlc1Xo6nD7oIYOkVa6kQOEKxjilystR0VYZ4dIrVvZyAnC7VUN8cvVumjknq217y5WYMyLU1yOz7Duaq1IXXf2fhSHSKv1H5zvZ/2sn/Vo/Q9mVt3wPo+11QAAAABJRU5ErkJggg==;" vertex="1" parent="1">
          <mxGeometry x="5814" y="-636" width="1216" height="1216" as="geometry" />
        </mxCell>
        <mxCell id="itlNjK1PcwNAdsoQQOxN-26" value="" style="shape=image;verticalLabelPosition=bottom;labelBackgroundColor=default;verticalAlign=top;aspect=fixed;imageAspect=0;image=data:image/png,iVBORw0KGgoAAAANSUhEUgAAAOEAAADhCAMAAAAJbSJIAAAA/FBMVEX///8AAADs7/HI4/j/4IL/q5GzndtJSUmejFX/5YXv8vTz9viQkJD/4oPu0XuxyNszMzPMztC91+r/r5SCg4NgT0qMa2GuxNT424QzMSq/rHCarLnb3uAPDw59fX1vYz1cXV1rYklrbG1td4Cdnp/clH2/wsP+s5vopZFUVVUdHR2ol8e2traIe5+pqal2dnZTREB5XFPR1NZEPSf/7YpQSlwYGBgqKipFQE+smdCQgq4UFRDI4/l1aUazn2NZWVnLkoG3gnFDNTGneGpwZoQ4NT+FeE9kW3Wik717b5E8PDy1oNpUSmRoXnszMDtOSluIeKaUgrV8ipTNtXBrj0FyAAAJfUlEQVR4nO2da2PaNhSGY9LCIiUdNLRLN5NRxsgggFu6QEja0m3p0oSkS9v//19mHcl3S3YwWFKq90uCr3os6ejoSJa3toyMjIyMjIyMjIyMVNV4V4bG5QEuLDlalAWIJAFaFjKE6yR89axcvSqd8Pf9cvV7+YSPy5UhNISG0BDm0P5RoP20jelbvY3qEx49C7Xcz7ytH0IbWx8Yzf6r0NbX+5oQ7v8VcU7+ouneb4U3/s02/hM59IOehP9QmKNUwudaEj7e/zuU6hdeeYxkF8vYx39MUwq0+oSPj/4IdORzh7YGliZ8qD6WpqgMoSE0hN8l4YPvAb9+Xq5el04oRYbQEOYVJjfrNMtVh9wUF0/8+DCHHHKzCS5XE3JTJ0/yhMMbu/kLTANVyhRq5E9aV0BYexCEte+e8M2vmZJGmJ20NzkIf/hzJ0MHGyIEi8K5LCU8yEranz/kIdx5lKEnGyFEtnv3WnNcSYWkhE+ykrajMiF2WDVyGviBEvZ9U+FUEhdXgBBx/l+F0BpM4tkonxDZtrcBB//em/DklEVQezFE2YSo4rqNPboFD91ihu7PCISj6vyCIk5iT7BMwr0EIZhBq0a3oLr7f/8eJRW5bURAWK3OP5Lrz2IHUcK99RLu5WwP8QSKVj9EaA3sFIOYRocqvW53jEOE1eUJucJh5ALi9nBvNcK9g39fpitKiHus6jBC9jPN5if47F14HlYHhwiry4+JckoJOen592BvJcKdl5ZAPiEew++Zb/5wg447jLMQse34l4sQVo+hzQifL/ZLX+6sQrh38CIPIW7Cz3qo4iF7Btt2xYhe3hO1UISwCuYmkt1CwhdeJm6AENEcbKOoaW3D1p7I3GCvMzpNIZyTmj0MG7ONES5+S1GIkKazFbMr2IYbdwWZyABbl18+pRBWT90fzdDplDAtMe2ChL9sJ/U0nIf02Q4idgX3aE2c8POQtJquTua00nmEJyMmQthPED5NSc0vRQnfJi75NkwYWFIcT72VcL1CCaaZfOWZFY8wolaSMJmazRO6JbIeLZK4C7+vRS0iXviAfEJLEULXrtTCiKyCtUVeDU3vZTVCmAiDtVUhrCAEpvOa/YSmwuF11ulTINHP82WEsFLZbUd0aCeeiSxClm/skeNrS2xFXdlTv4yGCOMh0mSuyyN0HZvrNuszIbtfG4oBqWM3jxMKT5FNWAnFkBA3nOQfTLL8tBomjOxWkvBegpDMTZjQGgSadlIurRshMTQXEcKIxslrPzDCFJddR0K/lFYv44Qpllg3woilcXsSx74+TdOvrRkhtBbn82qKzsi1007RjBD87lEaISmxNcVsKeKP23IfAnjZs2UScM4xNDIJcYP/Oh03nxH0ry6ShKRbaKUFlOURiqML3DAGOK/WWRzwimxtquXTJPs8YR3y/FP2YM5SAFuCE6Tk4VBEOOTXRPpkLkJ1kQaCEyMWsgndXsWiz9FCFDGFVt/1R0es0fDGKzj9LqlRjBVsKaS5wzL6v5vb25tTSwioW3vIEt1NKdbiiqsZodvQXEf52vzglZ6ErrPQW/jvlMyciaBYa0oIo0+93U6n44wb6XMwtCckgbocVklrwpxS1PPmhQb1IsSNbh6NV5uCogBh7jmDM8EwTQ4XQVXPOyzuUBuyHRbH76T7pJLzUOh5h8XNHjwLDuLONZLqeXfyyBHY3tBj4HZGFPW8c3rhqhMWF7ncxWj0UAkRndXg9hLJnzGv4dSWEOEhHdw+poTWNYdRN0I2+8btWwxYBfQIXXWZcxCdoqMXIbIbhALbbY/qc3j4ok6mriDUmCgzjn9vQDe19R4OZn39BwGp5dWNn40YT/qRkIZqnreYHsN8ojYLYsxGoXjbGYvXNOlsucABkNniT1KC3fwoYiXm6E3joxefPof2dvxMVM7zTo1bs7TaoeNOk2MXy9vQfj9orp7nzSfEwaRS69ajuhtdje684bZRcMA1lk7I8bzbGZ2Em+VlAHj2kZ01uFr6iCdziPF7QWWZ9bBbq8WD3TVHUAvJPVpkSuIVHbU4/hh6MlO67QvsgxopPQ85nje/FkIT8fk4sJ6x3L/198zBrrIWQ5/20JvnfrOMAtbbtSjiMjqOoQ9hBTM/ZgCIdKZJfQwZ36Mu6igYK3V3sel7GhFW8JDOR/1S9V47cNg8L0Rnpk6JTV2yHPQCWDoRujgOMza0jAbNOpt8C6PfxO/p2wq0+Cshkjb0s1cUZ5FpnKQMT8kuUg1ravilKxC2WUbNz63YiycU5JO7747UVW0JB8yegJ2JhtdwndHDnMxglrBmhOT8O+a7xKYH+ZP6wNRM5PYtVhYQnrG5F30c3Ufq6GVA6Kt8wp69siC4djefg+dZi+0keXjp7juO3aRXOmGrgOD88/PzVsqFoBlM21c6oRSVRLgtkTCZmI0Qbn+VBPg1JS0bIXy7/fQnGXq6nfa4N5KHSskQGkJDKF+G0BAaQvkyhIbQEMqXITSEhlC+DKEhNITyZQizCVVXUcKvP6qurwUJ9ZAhTCd89OiN7ITn1psV1778pksmvvi20tqX7uEHT/TQQZDke66yu6eLHq1KqJ8MoSFUX4bweyHM/IKHwsr1BY93P69P79+v66C8epeDUH9934Sd7NM1UEdAiNr1dQrmE9bEIodM13rXtvj7cznfPc+lLZgTaguPgc+p9dZ72xIFE7qF3w+AKcGDUhO1XpF6LVjyg60Y4chOZgFBMRXOaqeFVF/B1y4Fr8zStxfL+jLlRpRREaEazmQnspAOrci7PQlC0lg0ZSeykMZiUwOGRvhVTeVFTM2Ub2dgfX2dDc3WFthK/vpJ0N5XZCeymKA14BJCayI7iQVlCA2h+jKE2hPCy5T8hcuBUOO+kyto8PgL6cFCLrbsRBYS6TsMOHxExDMfyk5kIXVz+KWiT6GrL/LxMUdASIIAC9mJLCRSz8YY8US/fyk7kSvJboCgC9/t8QXrYAzpwRpZHLvpraR3Pw2aekAiJ5uFK0eDmI29Wv75+ah8NtrZEBlSHBGxwrbKqhkNWrxbantxMHhVt7PWkE/34dj3PpUOgYMbWl95cXJUqateTkl4VPSN3ExEeEQqB1AhfUWW0IdvYLdkY/AFscNiy+/CQjvqxhdJh1bUV8oj0pyqGyMmbmi92HceEOlPqdtjNISG0BDKlyF8KITFVFeesLVoFxF8pUxtwnXIEMoTWhOhwr38Spf/6dzc6qrbtTAyMjIyMjIyMjIy4ul/5EVIHwlsB58AAAAASUVORK5CYII=;" vertex="1" parent="1">
          <mxGeometry x="3769" y="-477" width="1061" height="1061" as="geometry" />
        </mxCell>
        <mxCell id="itlNjK1PcwNAdsoQQOxN-29" value="" style="shape=flexArrow;endArrow=classic;html=1;rounded=0;fontSize=12;startSize=8;endSize=21;curved=1;strokeWidth=23;entryX=0.101;entryY=0.546;entryDx=0;entryDy=0;entryPerimeter=0;" edge="1" parent="1" target="itlNjK1PcwNAdsoQQOxN-25">
          <mxGeometry width="50" height="50" relative="1" as="geometry">
            <mxPoint x="4814" y="35" as="sourcePoint" />
            <mxPoint x="5821" y="35" as="targetPoint" />
            <Array as="points">
              <mxPoint x="5342" y="35" />
            </Array>
          </mxGeometry>
        </mxCell>
        <mxCell id="itlNjK1PcwNAdsoQQOxN-30" value="" style="shape=image;verticalLabelPosition=bottom;labelBackgroundColor=default;verticalAlign=top;aspect=fixed;imageAspect=0;image=data:image/jpeg,/9j/4AAQSkZJRgABAQAAAQABAAD/2wCEAAkGBxIREhIQEBIQFRAXEBIPFhUQEBUPEBAPFRUWFhURFRUYHSggGRolGxUWITEhJSkrLi4uFx8zODMtNygtLisBCgoKDg0OFxAQGy0lICUtLS0rLy01LSsvKy8rLS0tKy8tLS0tLS0tKy0tLS0tLS0tLS0tLS0tLS0tLS0tLS0tLf/AABEIAOwA1QMBEQACEQEDEQH/xAAbAAACAwEBAQAAAAAAAAAAAAAAAwQFBgIHAf/EAEkQAAIBAQMHBwkEBwcFAQAAAAECAAMEETEFBhIhQVFxImFzgZGhsQcTMjNCUnKywSM1ktEUJDRDYqLhFVNjgoOT8CWzwtLiFv/EABoBAAIDAQEAAAAAAAAAAAAAAAACAQMEBQb/xAA+EQACAQIDBQUFBgQFBQAAAAAAAQIDEQQxcRIhMkFRBRMzYaEUIoGR8BVCcrHB0QZTVNIkgrLh8SM0NVKi/9oADAMBAAIRAxEAPwD3GABAAgAQAIAEAINuyvQo+tqop3X3v+Ea+6PGnOWSElOMc2UFsz8oLqpU6lQ7zdTU9ZvPdNEcJJ5uxU8TFZFLas/rQfV06KDn0qh7bwO6WxwkebZU8TLkVdbOq2v++e7dTRV7wt8tWGprkVuvN8yHUt9sbGtaTxquB2XyxU4Lkhe8l1ZGdLQ2JqH4ql/1k7MSNpijYau7+YSdxFz5+hVhhf1Pd9YbguzpRa19F6w+GsR4NI2Y9ETtS8x1PK+UKeFe1dbtVH818V0ab5IZVZrmyVRz7yhT9J1fmq0VHyhTEeFpvkMsRNcy2sflRqC4VrMjbzSqFOxWB8ZVLBLky1Yl80aDJ/lFsNS4O1Sif8VNX4kvAHG6USwlRZbyyOIg/I09jttKsunRqU6i76bhx2iZ5RcXZouTTyHyCQgAQAIAEACABAAgAQAIABMAM7lbO6jSvWn9q/8ACbqYPO+3qvmmnhpS3vcUTrxjlvMhlHOO1V7xplV92lyB1nE9ZmuFCEeRmlWnLmVQsx2kDvlxUdizKMbzxNwhcBbWqintIDzco90mzI3CXyzSGGkeC3eN0nZYXEtl1diN1kD84bAXFnLp2Ux+P+knYC5z/bre4v4jDYIuff7db3F/EYbAXOhl7fT7H/pDYJuMXLibUccLj+UjYYXHpleicSR8Sn6XyNlhdHXm6FTZSJ5rg3drhvRJHr5Cpn0Syn8Q79ffC4EH+y7RRbzlFzpDBqTmnUA6iPGDs1Zkp23ovMkeUe2WchLSorKMdMearAfEBcesa98zzwkJcO4ujiJLPeeiZu532S23LSfRq3X+aq3JV57hfc3+UmYqlCdPPI1QqxnkX8pLAgAQAIAEACABACPb7alFDUqG5R2k7FA2mNCDk7IWUlFXZ59lzOGraSVF6UvcB1sN7nbww8Z0aVCMN/Mw1KrnoVC098vKiJacqU01A6R3LgOJwkqLZFysr5ZqN6Nyjm5R7T+UdRRFyDVqs3pMx4kmNYg4gAQAIAEACABAAgAQAIAEAH0bZUT0XYc1947DqkNILk+z5cI9YoPOuo9h/pFcCblgKlG0C46LczamHDaOIi2aGuU+UMgMvLoEm46Wjfc6kawVO3xkp9QNNmf5SHpEULeWenfoisQTVp7Lqg9sc/pDbfsyVsKnvh8jTTrtbpHrNKorKGUhlIDAqQVZTrBBGInOasbDqABAAgAQA5dwASTcACSTgAMTBbwPNMv5Va01CdYpi8Iu5fePOf6Tq0aSpx8znVKm2yqr1lpqWY3DvJ3CWpXKzP27KT1NXop7o28TtlijYVshRiAgAQAIAEACABAAgAQAIAEACABAAgAQAAbtYx5sRAC3yflci5ause9tHxb+MRx6DJjMuZJFUGpTA86BfqwqDdx3GKmSWXktzsajVWw12+wqNo0i37qsTqT4WOq7YxG8zNiqO0ttZ8zRQqWey8j2Kc02hAAgAQAo88bSUszAYuy0+o3k9ykdc0YaN6mhTXlaBgadInWJ0WzDYzOWq5aoy7EJUDnGJ7fCWxW4RkCMQEACABAAgAQAIAEACABAAgAQAIAEACABAAgAQA0GbtUurU/duI+E7Or6yqe4aO8z+c1lNKudG8aQFUEairEm8jnvBMmLuiWe/wCb1vNostnrnGpQp1DzOygsO2+capHZm49DpwltRTLCIMEACAGaz89RT6YfI81YTjehnxPCtTOZEQOGXapB6mGrvBmqq7WZnpq5js6LA1G0OCOS586p2ENrPYbxNFKW1EqqRtIqZYIEACABAAgAQAIAEACABAAgAQAIAEACABAAgAQA2OYuTGK1KxHJYhF59G/SPC+4dRmWvOzSL6Ubq5ns/wBh+k6I9lAh44n5ruqWUuG4s+I9fzA+7rH0Czl1/Elqb6PBHQ0EpLAgAQAzWfnqKfTD5HmrCcb0M+J4VqYnJ9uNCur+zdosDgUOP53803zhtwsY4y2ZXNxlbN+jbqIUn+JHW7SpsR/y8bewznQrSpyNsqamjyjL+b1exPo1l5BNy1F1034HYeY6/GdOlWjUXumGdOUHvKqWiBAAgAQAIAEACABAAgAQAIAEACABAAgB8JgBr81Mxq1pIq1w1Kz46+TVqjco9lf4j1bxlrYqMN0d7NFKg5b3kbLOXKNKwUlp0wvnSujSpjBFGoOw2KO89ZGWjCVWV3lzL6slTjuPGstMSwJJJOkSTiSTeSZ0zEj3TMD7usfQLONX8SWp0qXBHQ0EpLAgAQAzWfnqKfTD5HmrCcb0M+J4Vqed2n0uqdOORgeZqs3csNSCqTybhdfhhgebn2TBWpqTbNdKdlY2CWmlXU06iqQwuKVAGVhu16jMlnF3RqupKzMplvybUKl7WVzRbHQa+pSPD2l7SOaaqeNkt0t5nnhYvh3GIypmbbbPfpUWdfeofaqeocodYE2QxNOXP5maVGceRQkXEg6iNRB1EHcRLyoIAEACABAAgAQAIAEACABABlms71To0kd292mhduxRIbUd7JSbyNTknye2ytcaoWgm+odN7t4RT4kTNPGU45by+OGm89xucjZm2OxDzr3O68o1a5GinOq+ivHHnmKpialTcvQ0woQhvK/OLP8ARAadjAd8POMPs1+EYse7jHpYVvfMWeIS3RPOK9oeo7VKjMzsbyzG8kzoQSW5GOTb3sqsr4rwPjHIR7rmB93WPoFnGr+JLU6VLgjoaCUlgQAIAZrPz1FPph8jzVhON6GfE8K1PPLR6XVOnHIwMsqHojgPCZZZsvjkWNit7JqOtd20cDKZRuWxlY01C2OmBvG46xMzSL02TqWVB7SkcNcVobaC1Wey2gXVadGp0qKSOGkPCTGco5OwOMZZoprX5PrBU1qj0ydtKq3cGvA7JdHF1VzuVPD02U9p8ltM+qtNRekprU+UrLljnziVvCLkyureS+uPQtFFviV6fhpR1jo80xHhJdSI/k1towaynhVf6pH9tp+f18RfZZ+X18BZ8nVu3UP93/5k+2UvMPZp+R9Hk5t3+AONU/RYe2UvMPZp+Q6n5M7YcXso/wBSoT8kV42n0f18QWFn5Eyj5Lah9O1U1+Giz+LCK8cuUR/ZH1LOzeTCzi7zleu3w6FMHuJ75U8dPkkOsLHmy2o5oZNs40mpU+NocuOxzo90qeIqy5/IsVGnHl8xtbOew2ddFGUgYLZ0vXqIuXviqlUlvfqS6kI5Gfyl5QXN4s9JV/iqnTb8I1A9Zl0cMvvMrlXfJGQynlStaDfXqO+0Am5QeZRqHUJqhCMckZ5ScsytaWIQ4XGOhWV+V8V4HxjAj3XMD7usfQLONX8SWp0qXBHQ0EpLAgAQAzWfnqKfTD5HmrCcb0M+J4Vqee18eqdJZGBljRwHAeEzSzZfEcsqY6NUJmNB0IrJOhFYx8q2jzYv5WN3Jxiki/7cIwL9dx8ZIXD/APSMNl/ED6SbEXODnU/92vaRJ2SNoU+dtTZTp9ZJk7BG2KbO+tsp0v5vzjbCI22IqZ4WjYtEf5G/9oypojvGQ62dVrOFQL8NNfqDGVOIrqSK+0ZatL+lXq/5XKDsW6WKEegjk3zKuqxJvJJO86z2yxCMS8ZEMS0dCimjIgS0ZCnC4x0KyvyxivA+MYEe65gfd1j6BZxq/iS1OlS4I6GglJYEACAGaz89RT6YfI81YTjehnxPCtTz6vj1TpLIwMsKOA4DwmaWbL4jhKmOjUI2ocJnZoR2DEZJ2DFYxGyl6A+IeBiskqmgiBTRkQxLR0KxTRkQJaMhRLRkQKeOhWKaMiBLRkKKeMiGJaOhRTRkQJaMhTlcY6FZXZYxXgfGMCPdcwPu6x9As41fxJanSpcEdDQSksCABADNZ+eop9MPkeasJxvQz4nhWp59Wx6p0lkYWWFHAcB4TNLMuQ5ZUx0aOm2ocBM7L0MBisZHYMVkiLeeSPiHgYjGKxoIgU0ZEMS0dCsU0ZECWjIUS0ZECnjoVimjIgS0ZCinjIhiWjoUU0ZECWjIU5XGOhWV2WMV4HxjAj3XMD7usfQLONX8SWp0qXBHQ0EpLAgAQAzWfnqKfTD5HmrCcb0M+J4Vqef1ceqdJGFk+jgOA8JmlmXIcsqY6L6k2ocB4ShlyGhojGR2GisZCraeT1jwMRjFc0EQKaMiGJaOhWKaMiBLRkKKaMiChptXc1GSqoZajIaToNAAHk6xr1i43880+4rJr4lPvPmfRlS4XVaVVGGokIXp8Qw2Q7vow2uo+jaEqDSRgw5tnEbJDTWYXuDyUDEtHQopoyIEtGQpymMdCsrssYrwMYEe65gfd1j6BZxq/iS1OlS4I6GglJYEACAGaz89RT6YfI81YTjehnxPCtTAVcZ0VkYSdSwHATPLMuQ5ZUx0XNFtQ4DwlLLkNVojGQwGIxhdqPJ6xEYxBaCIFNGRDEtHQrFNGRAloyFEtGRBVZRHm3SuNXKWlU3GmxuVjzhru0y+G9OPyK5bncdV09NbrtC4hgcQdhB7roqB3uQbXYATp0zoVd49FuZhtlsZ8nkK1zRzZbXp3qw0ai+kv/kN4kuNshbjGkoBTRkQJaMhTlMYyFZXZYxXgfGMCPdcwPu6x9As49fxJanSpcEdDQSksCABADNZ+eop9MPkeasJxvQz4nhWpgamM6KMLJtLAcBM8sy5DllTHRaUW1DgPCUstQ4NEYyGAxGOc1zyeuIxiG0EQKaMiGJaOhWKaMiBLRkKJaMiCNa6IqIyNgwKnr2yyLs7itXViHk+szIQ/pIxpEjByvtD/mN8skknuET3DWkICtypROqqnrE1/Em1TLYPkxJdRlOoGUMMCAYWsBy0ZECWjIU5TGMhWV2WMV4HxjAj3XMD7usfQLOPX8SWp0qXBHQ0EpLAgAQAzWfnqKfTD5HmrCcb0M+J4VqYGpjOiYSbSwHATPLMuQ5ZUx0WFJtQ4CVMsQ4GVsdHamIxkFU6ojHIzQRApoyIYlo6FYpoyIEtGQoloyIFNHQpUWCuqWdKjm4EaRO9mYk95l0k3NpFado3JjRUSKeMiGVdi5DPROA5afAdnUfrLXvVxF0JLQQCWjIU5TGMhWV2WMV4HxjAj3XMD7usfQLOPX8SWp0qXBHQ0EpLAgAQAzWfnqKfTD5HmrCcb0M+J4VqYJ8Z0TCTKWA4CZ5ZlyHLKmOiZTOoSpliGq0RjoYplbGR051RGOIaCIFNGRDEtHQrFNGRAloyFEtGRApo6FM9aLI5KWcoxpCsamkPR80bzoE7CLyOyaVJb5c7FTTyJdiJUGk/pJqB9+n7LfQ8/GLLfvRK6DnkIGQrXZQ5DAlXF9zLjr2HeJZF2FaI5qunrLivvqLrviGzjGsnkKMYyUQcpjGQrK7LGK8D4xgR7rmB93WPoFnHr+JLU6VLgjoaCUlgQAIAZrPz1FPph8jzVhON6GfE8K1ME2M6BhJlPAcBKJZlyI9fK9Cm2g9VA2BGs3Hnuw64uxJ70htpItKNQEAggggEEG8EHAgyiRYh6tK2OiE2cFlVzTavTDA3G8m4HaC2A7ZPc1GrpB3kVzLS/VM7LULaCAU0ZEMS0dCsjvUG8dsoljKEHaU0nqXwwleavGDtoKZxvEhdoYX+YvmT7Bif/RiyZqo1qdVXptNeRnq0alJ2qK2opok8bhoO0qkb6jxwWImrxg7aC2WQu0cJ/Mj8xvs/Ffy2R6i9ow3ibadSM47UGmvLeY5wlB7Mk0/PccVEIxEroYujWbVOSb8iytha1FJ1ItLzENNaMxUVKjaZWpUKC/k6IAVhxO2WK1twpIp0gg0RfdzySDpMZKFZXZYxXgfGMSj3XMD7usfQLOPX8SWp0aPBHQ0EpLAgB8JgBl8+Xvop0w+R5qwnG9DPieFamHbGdAxEylgOAlEsy1GDSxGtaLQg9K+u687q94HXrHXL3LZinoIlds0OY9v0qbUSdaHSXo2OHUb/AMQmfExs7ltJ7rFtnFlHzFB3Buc/Zpv0229QvPVKaUNuaRZOWzEwNawaFnpVjjUqOF6NQBf1m/sE3Kd5uPQzbNopm/XK6WWyWapVDkNSooNABjpeav13kbjOY6MqlWSj5/mbO8UIRbLKyWpatNKq36LKGGkLjcd90plFxk4ssTuk0Jyla1o02qsCVUXkLcWxA1Xkb49OLlJRQsnZXINhymtopNUphwASnLABvABv1E75T2jGdGhUs9+y8i/AONSvC+Vws6Ag343zgdj4XD1qcnUSbv6Hb7VxOIpTiqbaVvU7amNwnaXZuEf3F9fE5D7Rxazm/T9hT6hqlWOpwwuCqdytnLLzaX5FuDqzxOLp9675+ib/ADFTn9i4ChXpSnUjd3t6L9zf2vjq9GrGFOVla/q/2OGYztfZODe7u16/ucj7Uxa+/wCi/Y5r4Tj9h3p42rST93f6SSR1u2bTwlOo1vuvVNs5teA4/SJ/DXjVPw/qN/EHgw/F+jILT2aPJiKyBhcwBHPrjIgQlPR1A8nZfrI5r90cU+rjJRDK7LGK8D4xgR7hmDU/6fZB/gL9Zx6/iS1OjS4I6GkBlJYfYAR61SAGWzwe+knSj5WmrCcb0M+J4VqY8zoGImUsBwEokWoyebv7fV41/nllXw18CIcQW0foVuWqNVJzpHdoObqg6jr7JC/6lO3MH7srnectU2q1U7LTOpToXjWNNtbtz3KO4xaKVODmxp+9JRRKz7pKlKzIouVSygblCqBEwjblJsasrJI+Z1fd9i/0f+w0jD+PP4/mFXw4/XI0Wbn7JZ+iWZK/iy1L6fAhGdf7LW+EfMsbD+JEirwsrMyP2dumb5El+L4/gV0OH4lw9Bd04k+yMLN32baM60O1sVBW2r6oTUpAC8THjeyaFKhKpTumt+ZswfatarWjTnZpi79UpjXqVuyqjm72aXwvH9yyVGFLtOnsK1036SOJu/h9/wCGn+J/kjJ24v8AER/CvzYtxOjh+0sPWqd1FtS6NW+n5GGv2dXpU+8aTj1Tv8dD5XwnF7I/8lW/zf6kdftb/sKX+X/Szm14Dj9In8NeNU/D+o38QeDD8X6MgtPZo8mKaMiBLRkKcLjGQrK/K+K8D4xiUezZiv8AqNl6FfrOPX8SWp0aXBE1FF5SWD4AV1doAZrOpvs16QfK01YTjehnxPCtTKmdAxEungJRItRV5NyF5qu1fzl+kah0dC67Ta/HS2cITqXjs2JjGzuTMt5IW1IFJ0WU6StdpXX6iCNoP0EqhUcHceUdpCM383BZnNRn03IKjk6IUHE4m8nfCtX21axNOnsu5KzgyJ+limPOaGiWPoad94A3i7CVUq3dNu1x509uxItOTKLWdLPXYaCoiBiRTOmi3BlvOo6jq17cZWqk1Uc4DuEXFRkUiZCVBo0so1ETYoqC4djgd00d+3vlT+vkVd1bKRAy3YTTouTlB6uAFMvf5w3jVdpnjhsltKe1Je5bz+kJONlxE7MtD+jNsvquQebRUX9oMzdowdS8Iuzaz6F+DmqbU2rpPLqW5oH3z/zrnB+y8R/US9f7jsfadD+RH0/tFmkdrEwfY1Se6pWk10/5bJXa8Ib6dFJ/XRI+EbJ1aWCowougl7rz8/8Ac5lTGVZ1lWb95ZeX+wphOYuw5U5N0azj9dU1+R0n2zGaSq0lL66NM40pVV7AqyvPvby5XX63ZZT7bpxtHurR8n+lkcVtY2R+w4dxOUKlOSk/vWdtOi1yfyF7Zl38IzpzTiuV1fXz05CvP3aiAZsrdh05VHUozcG+n0n6mWl2zOMFTqwU15/rmn8jg2ge4vd+UX7GxP8AVS9f7iftbD/08fT+0TVrg3XIouPNr5sJswnZtWltKdaUrrnfd/8ATM2I7QpVHHYoxjZ8rb934SNWqAgDRAOrXv1XToUaEoTcnNtO9l0u79fhpZcjFVrxnBRUEmrb+tlbp8dd/MQuM1oyMr8r4rwPjGJR69mS36lZehX6zj1/ElqdGlwI1FBpSWE1DACsrmAGaznPIXpB8rTVhON6GfE8K1MzOgYiXTwHCUSLUNWVMdDVlbHQxYjHQ1ZWx0RsqZLpWlAlYEqG0xcxXlXEbOYmEKsqbvEJQU1ZlW2Z1k9x/wDcaXLGVepX3EDlc07IDfoMeY1Gu7jJ9qqvmR3MFyLNKaqAqgKoFwCi4AbgJTdt3ZZa25HLRkQJaMhRLRkQKeOhWKaMiBLRkKKeMiGJaOhRTRkQJaMhThcYyIZXZXxXgfGMCPW8yj+pWboV+s49fxJanRpcCNPQMpLCfTOqAFdXEAM3nOOQvSD5WmrCcb0M+J4VqZqbzESaZ1CUyzLUOWVMdDVlbHQxYjHQ1ZWx0MErYyOWggFNGRDEtHQrFNGRAloyFEtGRAp46FYpoyIEtGQop4yIYlo6FFNGRAloyFOVxjIgrcrnWvD6xgR63mWP1KzdCs41fxJanRpcCNPQEqLCfTGqAEKusAKPL1mL0muxHLHVj3Xy6hLZmiqtHagzHidNmBDaTXSuSuMmSVlDLUNWVsdDFiMdDVlbHQwStjI5aCAU0ZEMS0dCsU0ZECWjIUS0ZECmjoVimjIgS0ZCinjIhiWjoUU0ZECiIyFPh1CMiCmqhq1QKgvZmFNRvJNw7zJbSV2CTe5HueSbGKNKnRXBKaUxz6IAv7pxJS2pN9TqRWyki4oLFJJyDVABFenACvrU4AY3LmTTSYuo+zJ2ewd3DdOjQrba2XmYa1LZd1kVyPfjj4y5qxUmPRrpVJXLEyRTYGUSTRYmOWVssQ1ZWx0MErYyOWggFNGRDEtHQrFNGRAloyFEtGRAp46FYpoyIEtGQop4yIYlo6FOCsZEC3IAvOoRkKVFutulqGpdp3/0jpEG58n2axQi111ucj7JGGtFI11GGxiNQGwE79XPxVe/uR+JroUre8/geiUKcxGosKKQAkQA+Mt8AIlalACBaLOCCCAQdRBF4IgnbIGrmUyrkAre1HWPd9ocN/jxm6liU90/mY6mHa3xKVaxXURhquOojmmlxT3ooUmiTSrqdtx3HVKpRaLFJMlI5H9ZQ4plqbQ9KsqlAdSHK43ylxZYmgaQiRTRkQxLR0KxTRkQJaMhRLRkQKaOhWKaMiBTCOkKKZYyQrF1CBrJAHPqjoVlfaMoqPR1nsEdRIuQqNGtaX0Kas7e6o1KN5OAHOZMpRgrtgk5OyN/mtmQlErVtGjUrC4hRrp0zv1+k3OdQ3bZz62Kct0dyNdOgo75Zm5o0ZkNBOo0oASgLoAfYAEAPjC+AEerRgBCq0IAVWUMk06vprr94amHXLIVZQyYk6cZZmdtubbrrpkMNzclu3A901wxcXxKxmlhmuEqagq0dTB1+Icnqv1S/wByplvKffhmMp5VI9JQeB0fziSoLkxlV6ok08rU9ukOIvHdKZYefItVWI0W6kcHXrOj4xO6muQ23HqdiqDgwPBgYuz1RNz4SYWQXYtiY1kRdimk2RF2Kc74yRBHqWhBiy/iEsUX0FbRFqZQpj2r+AJjqEhNpESrlVfZUnjcI6psXaINfKTnC5eA198dQRDkOsmQ7VaDetNyPeqchbt4LY9V8WVanDNjRpzlkjTZKzAXU1pqFv4KV6rwLHWeq6ZZ4x/cRfHDL7zNpk7JlOioSkiou5Rded53nnMxyk5O7ZpUVFWRZ0qEUkm0qMAHgQA+wAIAEACABABb0wYAR6lngBFqWaAEWrZb9V2qAFXacg0WxpgHevI8JbGvUjzK3Sg+RV2jNVPZdxxAYfSXLFy5oqeGjyZArZrVB6LoeIK/nLVjI80I8NLkyHUzctA9lTwcfW6OsVTEeHmR2yHaR+6PUy/nG9opPmR3M+gs5ItX93U7R+cO+pdUHdVOhyci2o/un62H5w7+l1DuqnQFzbtR/dXcXT84e00uv5h3E+g5M0bScfNLxcnwBiPF0/Mb2eZMo5kMfTrAcyoT3kjwiPGrkh1hurLKzZk2cemaj/E2iP5QD3yqWLqPLcWLDwWZd2HIdGlrp0qaneFGl+I65RKpOWbLYwjHJFnTs0QYlU7NACVTs8AJC0wIAdwAIAEACABAAgAQAIAEAOSgMAFNZxABL2WACWssAEtZIALNkgBybJADn9EgAfokAOhZIAdiyQAYtkgA1LLAByWWAD1oCADAgEAOoAEACABAAgAQAIAEACABAAgAQAIAEAPl0APhQQA5NMQA5NIQA+eaEADzQgB9FIQA7FMQA+hBAD7dAD7AAgAQAIAEACABAAgAQA//2Q==;" vertex="1" parent="1">
          <mxGeometry x="8655" y="-641" width="1022.58" height="1133" as="geometry" />
        </mxCell>
        <mxCell id="itlNjK1PcwNAdsoQQOxN-31" value="" style="shape=flexArrow;endArrow=classic;html=1;rounded=0;fontSize=12;startSize=8;endSize=21;curved=1;strokeWidth=23;entryX=0.101;entryY=0.546;entryDx=0;entryDy=0;entryPerimeter=0;" edge="1" parent="1">
          <mxGeometry width="50" height="50" relative="1" as="geometry">
            <mxPoint x="4824" y="45" as="sourcePoint" />
            <mxPoint x="5947" y="38" as="targetPoint" />
            <Array as="points">
              <mxPoint x="5352" y="45" />
            </Array>
          </mxGeometry>
        </mxCell>
        <mxCell id="itlNjK1PcwNAdsoQQOxN-32" value="" style="shape=flexArrow;endArrow=classic;html=1;rounded=0;fontSize=12;startSize=8;endSize=8;curved=1;" edge="1" parent="1">
          <mxGeometry width="50" height="50" relative="1" as="geometry">
            <mxPoint x="7133" y="-1768" as="sourcePoint" />
            <mxPoint x="7183" y="-1818" as="targetPoint" />
          </mxGeometry>
        </mxCell>
        <mxCell id="itlNjK1PcwNAdsoQQOxN-33" value="" style="shape=flexArrow;endArrow=classic;html=1;rounded=1;fontSize=12;curved=1;fillColor=none;gradientColor=none;strokeColor=default;sketch=1;curveFitting=1;jiggle=2;strokeWidth=40;flowAnimation=1;shadow=1;endWidth=400;endSize=99.3;" edge="1" parent="1">
          <mxGeometry width="50" height="50" relative="1" as="geometry">
            <mxPoint x="7033" y="-362" as="sourcePoint" />
            <mxPoint x="8414" y="-352" as="targetPoint" />
          </mxGeometry>
        </mxCell>
        <mxCell id="itlNjK1PcwNAdsoQQOxN-34" value="" style="shape=flexArrow;endArrow=block;html=1;rounded=1;fontSize=12;curved=1;fillColor=none;gradientColor=none;strokeColor=default;sketch=1;curveFitting=1;jiggle=2;strokeWidth=40;flowAnimation=1;shadow=1;endWidth=320;endSize=111.8;startFill=0;exitX=0.076;exitY=0.667;exitDx=0;exitDy=0;exitPerimeter=0;" edge="1" parent="1">
          <mxGeometry width="50" height="50" relative="1" as="geometry">
            <mxPoint x="8473.71608" y="114.71100000000024" as="sourcePoint" />
            <mxPoint x="6871" y="137.9968331043265" as="targetPoint" />
          </mxGeometry>
        </mxCell>
        <mxCell id="itlNjK1PcwNAdsoQQOxN-35" value="&lt;b&gt;&lt;font style=&quot;font-size: 100px;&quot;&gt;ADMIN&lt;/font&gt;&lt;/b&gt;" style="text;html=1;align=center;verticalAlign=middle;whiteSpace=wrap;rounded=0;fontSize=80;" vertex="1" parent="1">
          <mxGeometry x="682" y="-486" width="137" height="30" as="geometry" />
        </mxCell>
        <mxCell id="itlNjK1PcwNAdsoQQOxN-37" value="" style="edgeStyle=none;curved=1;rounded=0;orthogonalLoop=1;jettySize=auto;html=1;fontSize=12;startSize=8;endSize=8;" edge="1" parent="1" source="itlNjK1PcwNAdsoQQOxN-36" target="itlNjK1PcwNAdsoQQOxN-5">
          <mxGeometry relative="1" as="geometry" />
        </mxCell>
        <mxCell id="itlNjK1PcwNAdsoQQOxN-36" value="&lt;div&gt;&lt;b&gt;&lt;font style=&quot;font-size: 100px;&quot;&gt;CLIENT&lt;/font&gt;&lt;/b&gt;&lt;div&gt;&lt;br&gt;&lt;/div&gt;&lt;/div&gt;" style="text;html=1;align=center;verticalAlign=middle;whiteSpace=wrap;rounded=0;fontSize=80;" vertex="1" parent="1">
          <mxGeometry x="628" y="550" width="137" height="30" as="geometry" />
        </mxCell>
        <mxCell id="itlNjK1PcwNAdsoQQOxN-38" value="&lt;b&gt;&lt;font style=&quot;font-size: 100px;&quot;&gt;POLICY OFFICER&lt;/font&gt;&lt;/b&gt;&lt;div&gt;&lt;br&gt;&lt;/div&gt;" style="text;html=1;align=center;verticalAlign=middle;whiteSpace=wrap;rounded=0;fontSize=80;" vertex="1" parent="1">
          <mxGeometry x="575" y="1576" width="137" height="30" as="geometry" />
        </mxCell>
        <mxCell id="itlNjK1PcwNAdsoQQOxN-39" value="&lt;div&gt;&lt;div&gt;&lt;b&gt;&lt;font style=&quot;font-size: 180px;&quot;&gt;WEB BROWSER&lt;/font&gt;&lt;/b&gt;&lt;/div&gt;&lt;/div&gt;" style="text;html=1;align=center;verticalAlign=middle;whiteSpace=wrap;rounded=0;fontSize=80;" vertex="1" parent="1">
          <mxGeometry x="2238" y="555" width="191" height="266" as="geometry" />
        </mxCell>
        <mxCell id="itlNjK1PcwNAdsoQQOxN-40" value="&lt;b&gt;&lt;font style=&quot;font-size: 180px;&quot;&gt;SONARWA INSURANCE MANAGEMENT SYSTEM&lt;/font&gt;&lt;/b&gt;&lt;div&gt;&lt;br&gt;&lt;/div&gt;" style="text;html=1;align=center;verticalAlign=middle;whiteSpace=wrap;rounded=0;fontSize=80;" vertex="1" parent="1">
          <mxGeometry x="3194" y="834" width="2326" height="30" as="geometry" />
        </mxCell>
        <mxCell id="itlNjK1PcwNAdsoQQOxN-41" style="edgeStyle=none;curved=1;rounded=0;orthogonalLoop=1;jettySize=auto;html=1;exitX=0.75;exitY=0;exitDx=0;exitDy=0;fontSize=12;startSize=8;endSize=8;" edge="1" parent="1" source="itlNjK1PcwNAdsoQQOxN-40" target="itlNjK1PcwNAdsoQQOxN-40">
          <mxGeometry relative="1" as="geometry" />
        </mxCell>
        <mxCell id="itlNjK1PcwNAdsoQQOxN-43" value="&lt;b&gt;&lt;font style=&quot;font-size: 180px;&quot;&gt;&amp;nbsp;DATABASE&lt;/font&gt;&lt;/b&gt;" style="text;html=1;align=center;verticalAlign=middle;whiteSpace=wrap;rounded=0;fontSize=80;" vertex="1" parent="1">
          <mxGeometry x="8573" y="666" width="1349" height="30" as="geometry" />
        </mxCell>
        <mxCell id="itlNjK1PcwNAdsoQQOxN-42" value="&lt;div&gt;&lt;b&gt;WEB SERVER&lt;/b&gt;&lt;span style=&quot;color: rgba(0, 0, 0, 0); font-family: monospace; font-size: 0px; text-align: start; text-wrap-mode: nowrap; background-color: transparent;&quot;&gt;%3CmxGraphModel%3E%3Croot%3E%3CmxCell%20id%3D%220%22%2F%3E%3CmxCell%20id%3D%221%22%20parent%3D%220%22%2F%3E%3CmxCell%20id%3D%222%22%20value%3D%22%26lt%3Bb%26gt%3BSONARWA%20INSURANCE%20MANAGEMENT%20SYSTEM%26lt%3B%2Fb%26gt%3B%26lt%3Bdiv%26gt%3B%26lt%3Bbr%26gt%3B%26lt%3B%2Fdiv%26gt%3B%22%20style%3D%22text%3Bhtml%3D1%3Balign%3Dcenter%3BverticalAlign%3Dmiddle%3BwhiteSpace%3Dwrap%3Brounded%3D0%3BfontSize%3D80%3B%22%20vertex%3D%221%22%20parent%3D%221%22%3E%3CmxGeometry%20x%3D%223606%22%20y%3D%22757%22%20width%3D%221349%22%20height%3D%2230%22%20as%3D%22geometry%22%2F%3E%3C%2FmxCell%3E%3C%2Froot%3E%3C%2FmxGraphModel%3E&lt;/span&gt;&lt;/div&gt;" style="text;html=1;align=center;verticalAlign=middle;whiteSpace=wrap;rounded=0;fontSize=80;" vertex="1" parent="1">
          <mxGeometry x="5658" y="737" width="1349" height="30" as="geometry" />
        </mxCell>
        <mxCell id="itlNjK1PcwNAdsoQQOxN-44" value="&lt;b&gt;&lt;font style=&quot;font-size: 180px;&quot;&gt;HTTP REQUESTS&lt;/font&gt;&lt;/b&gt;" style="text;html=1;align=center;verticalAlign=middle;whiteSpace=wrap;rounded=0;fontSize=80;" vertex="1" parent="1">
          <mxGeometry x="6886" y="-946" width="1349" height="30" as="geometry" />
        </mxCell>
        <mxCell id="itlNjK1PcwNAdsoQQOxN-45" value="&lt;b&gt;&lt;font style=&quot;font-size: 180px;&quot;&gt;HTTP RESPONSE&lt;/font&gt;&lt;/b&gt;&lt;div&gt;&lt;b&gt;&lt;br&gt;&lt;/b&gt;&lt;/div&gt;" style="text;html=1;align=center;verticalAlign=middle;whiteSpace=wrap;rounded=0;fontSize=80;" vertex="1" parent="1">
          <mxGeometry x="6971" y="666" width="1349" height="30" as="geometry" />
        </mxCell>
        <mxCell id="itlNjK1PcwNAdsoQQOxN-47" value="&lt;div&gt;&lt;b style=&quot;font-size: 180px;&quot;&gt;WEB SERVER&lt;/b&gt;&lt;/div&gt;&lt;div&gt;&lt;b style=&quot;font-size: 180px;&quot;&gt;&lt;br&gt;&lt;/b&gt;&lt;/div&gt;" style="text;html=1;align=center;verticalAlign=middle;whiteSpace=wrap;rounded=0;fontSize=80;" vertex="1" parent="1">
          <mxGeometry x="5708" y="808" width="1344" height="30" as="geometry" />
        </mxCell>
        <mxCell id="itlNjK1PcwNAdsoQQOxN-49" style="edgeStyle=none;curved=1;rounded=0;orthogonalLoop=1;jettySize=auto;html=1;exitX=1;exitY=0.25;exitDx=0;exitDy=0;fontSize=12;startSize=8;endSize=8;" edge="1" parent="1" source="itlNjK1PcwNAdsoQQOxN-36" target="itlNjK1PcwNAdsoQQOxN-36">
          <mxGeometry relative="1" as="geometry" />
        </mxCell>
      </root>
    </mxGraphModel>
  </diagram>
</mxfile>
